<svg width="316" height="359" viewBox="0 0 316 359" fill="none" xmlns="http://www.w3.org/2000/svg">
<path fill-rule="evenodd" clip-rule="evenodd" d="M175.198 23.329C175.719 21.645 176 19.8553 176 18C176 8.05887 167.941 0 158 0C148.059 0 140 8.05887 140 18C140 19.882 140.289 21.6966 140.825 23.4017L31.8377 87.0751C28.5361 83.2044 23.6232 80.75 18.137 80.75C8.19583 80.75 0.136963 88.8089 0.136963 98.75C0.136963 107.445 6.30237 114.7 14.5 116.382V242.618C6.30234 244.3 0.136902 251.555 0.136902 260.25C0.136902 270.191 8.19577 278.25 18.1369 278.25C23.3401 278.25 28.0276 276.042 31.3139 272.513L140.796 335.69C140.279 337.369 140 339.152 140 341C140 350.941 148.059 359 158 359C167.941 359 176 350.941 176 341C176 339.162 175.724 337.388 175.212 335.717L284.843 272.679C288.121 276.112 292.742 278.25 297.863 278.25C307.804 278.25 315.863 270.191 315.863 260.25C315.863 251.733 309.947 244.597 302 242.728V116.272C309.947 114.403 315.863 107.268 315.863 98.7501C315.863 88.809 307.804 80.7501 297.863 80.7501C292.6 80.7501 287.864 83.009 284.573 86.6102L175.198 23.329ZM149.827 34.0419C152.28 35.2939 155.057 36 158 36C160.98 36 163.79 35.276 166.266 33.9942L231.845 117.458C230.103 119.618 228.85 122.188 228.254 125H88.7458C88.1425 122.153 86.8664 119.555 85.0916 117.38L149.827 34.0419ZM78.7887 112.453L140.716 32.7306L35.5496 94.1718C35.9329 95.6336 36.137 97.1679 36.137 98.75C36.137 100.538 35.8762 102.266 35.3906 103.896L57.6508 116.828C60.9487 113.1 65.7683 110.75 71.137 110.75C73.8731 110.75 76.4666 111.36 78.7887 112.453ZM53.8119 123.85L31.4535 110.861C29.0998 113.447 26.0028 115.346 22.5 116.218V239.693L60.8852 143.547C56.2028 140.297 53.137 134.882 53.137 128.75C53.137 127.051 53.3722 125.408 53.8119 123.85ZM68.3087 146.529L28.7204 245.689C32.8793 248.717 35.6913 253.483 36.0885 258.92L141.168 273.608C142.189 270.92 143.836 268.54 145.931 266.645L76.5965 145.907C74.8745 146.455 73.0402 146.75 71.137 146.75C70.1747 146.75 69.2301 146.674 68.3087 146.529ZM83.4883 141.844L152.908 262.73C154.523 262.255 156.232 262 158 262C160.096 262 162.108 262.358 163.978 263.017L233.806 142.115C231.164 139.731 229.233 136.573 228.368 133H88.6323C87.7998 136.439 85.9793 139.493 83.4883 141.844ZM240.787 146.024L170.748 267.292C172.525 269.074 173.93 271.227 174.838 273.625L279.903 259.043C280.289 253.219 283.444 248.152 288.064 245.149L248.691 146.529C247.77 146.675 246.825 146.75 245.863 146.75C244.1 146.75 242.397 146.497 240.787 146.024ZM256.115 143.547L294 238.441V116.335C290.509 115.571 287.397 113.795 284.987 111.329L263.172 123.794C263.622 125.369 263.863 127.031 263.863 128.75C263.863 134.882 260.797 140.297 256.115 143.547ZM259.312 116.786L280.803 104.506C280.193 102.698 279.863 100.763 279.863 98.7501C279.863 96.948 280.128 95.2077 280.621 93.5661L175.425 32.7028L238.12 112.496C240.465 111.377 243.091 110.75 245.863 110.75C251.211 110.75 256.015 113.083 259.312 116.786ZM162.5 297.433C169.78 295.559 175.278 289.245 175.934 281.549L278.005 267.383L171.22 328.784C168.91 326.285 165.899 324.442 162.5 323.567V297.433ZM140.064 281.532C140.743 289.584 146.722 296.127 154.5 297.66V323.34C150.701 324.089 147.331 326.033 144.799 328.764L38.2979 267.306L140.064 281.532Z" fill="#E10098" />
</svg>
